<?xml version="1.0" encoding="UTF-8"?><svg id="Layer_1" xmlns="http://www.w3.org/2000/svg" viewBox="0 0 82.56 82.56"><defs><style>.cls-1{fill:#fff;stroke-miterlimit:10;}.cls-1,.cls-2,.cls-3,.cls-4{stroke:#231f20;}.cls-1,.cls-3{stroke-linecap:round;}.cls-2,.cls-3,.cls-4{stroke-linejoin:round;}.cls-2,.cls-5{fill:#231f20;}.cls-3,.cls-4{fill:none;}.cls-5{stroke-width:0px;}</style></defs><rect class="cls-4" x=".5" y=".5" width="81.56" height="81.56"/><path class="cls-1" d="M65.62,13.96c-3.43,2.34-13.91,9.1-13.91,9.1-5.21-2.01-14.47-1.65-18.88.03l-15.9-9.12c-.82-.71-2.04.11-1.71,1.13l4.35,16.81c-1.86,9.39-.77,30.84-.85,36.67l46.28.31c0-4.43-1.01-35.78-1.47-36.98l3.78-16.81c.34-1.02-.73-1.8-1.7-1.13Z"/><polygon class="cls-4" points="51.46 46.31 53.12 40.72 47.81 44.46 51.46 46.31"/><polygon class="cls-4" points="33.06 46.31 31.4 40.72 36.71 44.46 33.06 46.31"/><polygon class="cls-2" points="42.06 58.74 38.22 54.42 45.9 54.42 42.06 58.74"/><path class="cls-3" d="M42.06,58.67v4.81"/><line class="cls-3" x1="37.11" y1="63.61" x2="47.01" y2="63.61"/><path class="cls-5" d="M22.26,25.05l1.16,4.43c.1.37.66.46.89.13.53-.75,1.4-1.73,2.49-2.12.38-.14.45-.57.1-.76l-3.9-2.14c-.37-.2-.84.08-.74.45Z"/><path class="cls-5" d="M61.35,24.95l-1.2,4.85c-.07.3-.51.36-.68.1-.52-.81-1.45-1.99-2.67-2.36-.29-.09-.34-.45-.08-.6l4.06-2.35c.28-.16.63.07.56.36Z"/><circle class="cls-4" cx="36.4" cy="60.29" r=".31"/><circle class="cls-4" cx="33.33" cy="57.89" r=".29"/><circle class="cls-4" cx="48.59" cy="60.29" r=".31"/><circle class="cls-4" cx="51" cy="58.13" r=".53"/></svg>