<?xml version="1.0" encoding="UTF-8"?>
<svg id="Layer_1" data-name="Layer 1" xmlns="http://www.w3.org/2000/svg" viewBox="0 0 108.34 95.04">
  <defs>
    <style>
      .cls-1 {
        fill: #231f20;
        stroke-width: 0px;
      }
    </style>
  </defs>
  <path class="cls-1" d="M92.05,76.19c0,10.41-6.17,18.85-13.79,18.85-4.61,0-8.7-3.09-11.2-7.84-3.35,2.21-7.16,3.46-11.21,3.46-3.84,0-7.46-1.12-10.68-3.11-2.64,3.83-6.38,6.23-10.54,6.23-7.95,0-14.4-8.76-14.4-19.57,0-9.57,15.88-37.23,35.91-37.23,21.06,0,35.91,29.61,35.91,39.21Z"/>
  <ellipse class="cls-1" cx="37.88" cy="16.25" rx="11.14" ry="15.48" transform="translate(-2.99 10.89) rotate(-15.75)"/>
  <ellipse class="cls-1" cx="12.37" cy="36.01" rx="11.14" ry="15.48" transform="translate(-16.35 11.01) rotate(-30)"/>
  <ellipse class="cls-1" cx="70.47" cy="15.21" rx="15.48" ry="11.14" transform="translate(36.7 78.9) rotate(-74.25)"/>
  <ellipse class="cls-1" cx="95.97" cy="34.97" rx="15.48" ry="11.14" transform="translate(17.7 100.6) rotate(-60)"/>
</svg>