<?xml version="1.0" encoding="UTF-8"?><svg id="a" xmlns="http://www.w3.org/2000/svg" width="37.041mm" height="31.3058mm" viewBox="0 0 104.9982 88.7407"><defs><style>.b{fill:#231f20;stroke:#231f20;stroke-miterlimit:10;}.c{fill:none;stroke-width:0px;}</style></defs><rect class="c" width="104.9982" height="88.7407"/><path class="b" d="M77.0832,64.5325c0,7.1267-4.224,12.9048-9.4407,12.9048-3.156,0-5.9561-2.1154-7.6676-5.3673-2.2934,1.513-4.9017,2.3687-7.6744,2.3687-2.6289,0-5.1071-.7668-7.3116-2.1291-1.8073,2.622-4.3678,4.2651-7.2157,4.2651-5.4426,0-9.8583-5.9971-9.8583-13.3977,0-6.5517,10.8708-25.4903,24.5841-25.4903,14.4163,0,24.5841,20.2737,24.5841,26.8459Z"/><ellipse class="b" cx="40.0006" cy="23.4919" rx="7.6231" ry="10.6" transform="translate(-4.875 11.7405) rotate(-15.7509)"/><ellipse class="b" cx="22.534" cy="37.0209" rx="7.6231" ry="10.6" transform="translate(-15.4915 16.2269) rotate(-30)"/><ellipse class="b" cx="62.3087" cy="22.7819" rx="10.6" ry="7.6231" transform="translate(23.4682 76.5666) rotate(-74.2491)"/><ellipse class="b" cx="79.7717" cy="36.3108" rx="10.6" ry="7.6231" transform="translate(8.4397 87.2397) rotate(-60)"/></svg>